<svg xmlns="http://www.w3.org/2000/svg" style="display: none;"><symbol id="dashboard" viewBox="0 0 512 512"><title>dashboard</title><path d="m197.332031 0h-160c-20.585937 0-37.332031 16.746094-37.332031 37.332031v96c0 20.589844 16.746094 37.335938 37.332031 37.335938h160c20.589844 0 37.335938-16.746094 37.335938-37.335938v-96c0-20.585937-16.746094-37.332031-37.335938-37.332031zm0 0"/><path d="m197.332031 213.332031h-160c-20.585937 0-37.332031 16.746094-37.332031 37.335938v224c0 20.585937 16.746094 37.332031 37.332031 37.332031h160c20.589844 0 37.335938-16.746094 37.335938-37.332031v-224c0-20.589844-16.746094-37.335938-37.335938-37.335938zm0 0"/><path d="m474.667969 341.332031h-160c-20.589844 0-37.335938 16.746094-37.335938 37.335938v96c0 20.585937 16.746094 37.332031 37.335938 37.332031h160c20.585937 0 37.332031-16.746094 37.332031-37.332031v-96c0-20.589844-16.746094-37.335938-37.332031-37.335938zm0 0"/><path d="m474.667969 0h-160c-20.589844 0-37.335938 16.746094-37.335938 37.332031v224c0 20.589844 16.746094 37.335938 37.335938 37.335938h160c20.585937 0 37.332031-16.746094 37.332031-37.335938v-224c0-20.585937-16.746094-37.332031-37.332031-37.332031zm0 0"/></symbol><symbol id="product" viewBox="0 0 512.646 512.646"><title>product</title><path d="m292.958 195.921c6.565 0 11.907-5.342 11.907-11.908v-31.44c0-6.566-5.342-11.907-11.907-11.907h-73.27c-6.566 0-11.908 5.341-11.908 11.907v31.44c0 6.566 5.342 11.908 11.908 11.908zm-70.178-40.255h67.084v25.255h-67.084z"/><path d="m328.432 358.159c-6.565 0-11.907 5.341-11.907 11.907v31.441c0 6.565 5.342 11.907 11.907 11.907h73.271c6.565 0 11.907-5.342 11.907-11.907v-31.441c0-6.566-5.342-11.907-11.907-11.907zm70.178 40.255h-67.085v-25.255h67.085z"/><path d="m184.213 358.159h-73.27c-6.566 0-11.907 5.341-11.907 11.907v31.441c0 6.565 5.341 11.907 11.907 11.907h73.27c6.565 0 11.907-5.342 11.907-11.907v-31.441c0-6.566-5.342-11.907-11.907-11.907zm-3.093 40.255h-67.084v-25.255h67.084z"/><path d="m501.353 434.987h-20.041v-29.074c0-4.142-3.357-7.5-7.5-7.5s-7.5 3.358-7.5 7.5v29.07h-202.489v-202.489h67.78v50.254c0 4.24 2.16 8.091 5.777 10.302s8.031 2.375 11.804.442l15.884-8.142 15.883 8.142c1.749.896 3.634 1.341 5.514 1.341 2.178 0 4.349-.597 6.29-1.784 3.617-2.211 5.777-6.063 5.777-10.302v-50.254h67.584c.108 0 .196.088.196.197v139.151c0 4.142 3.357 7.5 7.5 7.5s7.5-3.358 7.5-7.5v-139.151c0-8.379-6.817-15.197-15.196-15.197h-93.548v-202.303c0-8.376-6.814-15.19-15.19-15.19h-202.103c-8.379 0-15.197 6.817-15.197 15.197v37.602c0 4.142 3.358 7.5 7.5 7.5s7.5-3.358 7.5-7.5v-37.602c0-.108.088-.197.197-.197h67.583v50.255c0 4.24 2.16 8.091 5.778 10.302 1.942 1.187 4.112 1.784 6.289 1.784 1.88 0 3.767-.446 5.515-1.342l15.883-8.142 15.882 8.141c3.774 1.934 8.187 1.771 11.804-.441 3.619-2.211 5.779-6.063 5.779-10.303v-50.254h67.59c.105 0 .19.085.19.19v202.3h-202.49v-130.62c0-4.142-3.358-7.5-7.5-7.5s-7.5 3.358-7.5 7.5v130.624h-93.548c-8.379 0-15.197 6.817-15.197 15.197v202.296h-20.04c-6.171 0-11.191 5.02-11.191 11.191v21.775c0 6.171 5.02 11.191 11.191 11.191h17.64v20.16c0 7.356 5.985 13.342 13.341 13.342h21.819c7.356 0 13.342-5.985 13.342-13.342v-20.16h357.777v20.16c0 7.356 5.985 13.342 13.342 13.342h21.818c7.356 0 13.342-5.985 13.342-13.342v-20.16h17.64c6.17 0 11.19-5.02 11.19-11.191v-21.775c-.001-6.171-5.021-11.191-11.191-11.191zm-226.565-374.521-12.958-6.642c-3.449-1.767-7.565-1.767-11.015 0l-12.957 6.642v-45.466h36.93zm71.815 172.028h36.929v45.466l-12.956-6.642c-3.448-1.768-7.567-1.769-11.016 0l-12.957 6.642zm-217.49 0h36.929v45.466l-12.958-6.642c-3.448-1.768-7.566-1.768-11.015 0l-12.957 6.642v-45.466zm-82.78.196c0-.108.088-.197.197-.197h67.583v50.254c0 4.24 2.16 8.091 5.777 10.302 3.618 2.211 8.031 2.377 11.805.442l15.883-8.142 15.883 8.142c1.749.896 3.634 1.341 5.514 1.341 2.178 0 4.348-.597 6.29-1.784 3.618-2.211 5.778-6.063 5.778-10.302v-50.254h67.78v202.489h-202.49zm16.102 264.956h-18.502v-18.502h18.502zm406.278 0h-18.502v-18.502h18.502zm28.83-33.502h-482.441v-14.157h482.441z"/></symbol><symbol id="box" viewBox="0 0 512.004 512.004"><title>box</title><g> <g> <path d="M509.483,262.693l-55.454-81.68l55.454-81.68c2.592-3.896,3.222-8.759,1.713-13.183c-1.523-4.424-5.01-7.896-9.448-9.36 l-181-60c-6.475-2.183-13.477,0.278-17.227,5.903l-47.52,71.279l-47.52-71.279c-3.779-5.654-10.84-8.101-17.227-5.903l-181,60 c-4.438,1.465-7.925,4.937-9.448,9.36c-1.509,4.424-0.879,9.287,1.714,13.184l55.454,81.68L2.521,262.693 c-2.593,3.896-3.223,8.76-1.714,13.184c1.523,4.424,5.01,7.896,9.448,9.36l181,60c6.37,2.142,13.456-0.249,17.227-5.903 l47.52-71.279l47.52,71.279c3.774,5.66,10.864,8.044,17.227,5.903l181-60c4.438-1.465,7.925-4.937,9.448-9.36 C512.706,271.453,512.076,266.59,509.483,262.693z M256.002,225.208l-132.583-44.194l132.583-44.194l132.583,44.194 L256.002,225.208z"/> </g> </g><g> <g> <path d="M330.24,373.699c-18.88,6.334-40.226-0.535-51.68-17.725l-22.557-33.836l-22.56,33.836 c-11.431,17.157-32.752,24.089-51.753,17.695L61.002,333.443v87.57c0,6.46,4.131,12.188,10.254,14.224l179.912,59.971 c0.542,0.19,1.084,0.337,1.626,0.454c0,0,0.015,0,0.015,0.015h0.015c1.055,0.22,2.124,0.337,3.179,0.337 c1.128,0,2.241-0.132,3.354-0.381c0.498-0.117,0.981-0.249,1.465-0.41l179.927-59.985c6.122-2.037,10.253-7.765,10.253-14.225 v-87.568L330.24,373.699z"/> </g> </g></symbol><symbol id="store" viewBox="0 -16 512 512"><title>store</title><path d="m311.167969 318.519531h50.332031v51.015625h-50.332031zm0 0"/><path d="m400.601562 255.410156c-14.382812 8.71875-31 13.457032-48.199218 13.457032-17.203125 0-33.816406-4.738282-48.203125-13.457032-14.382813 8.71875-31 13.457032-48.199219 13.457032s-33.816406-4.738282-48.199219-13.457032c-14.382812 8.71875-30.996093 13.457032-48.199219 13.457032-17.199218 0-33.816406-4.738282-48.199218-13.457032-14.386719 8.71875-31 13.457032-48.203125 13.457032-7.945313 0-15.660157-1.003907-23.027344-2.882813v158.714844c0 30.417969 24.746094 55.167969 55.164063 55.167969h25.167968v-135.5c0-8.285157 6.714844-15 15-15h80.332032c8.285156 0 15 6.714843 15 15v135.5h185.835937c30.417969 0 55.164063-24.75 55.164063-55.167969v-158.714844c-7.371094 1.882813-15.089844 2.882813-23.035157 2.882813-17.203125 0-33.820312-4.738282-48.199219-13.457032zm-9.101562 129.125c0 8.28125-6.714844 15-15 15h-80.332031c-8.285157 0-15-6.71875-15-15v-81.015625c0-8.28125 6.714843-15 15-15h80.332031c8.285156 0 15 6.71875 15 15zm0 0"/><path d="m150.5 359.367188h50.335938v120.5h-50.335938zm0 0"/><path d="m96.398438 229.40625v-86.9375h-96.398438v33.199219c0 34.847656 28.351562 63.199219 63.199219 63.199219 12.175781 0 23.546875-3.46875 33.199219-9.460938zm0 0"/><path d="m490.324219 49.503906c-7.933594-27.761718-36.757813-49.503906-65.625-49.503906h-337.398438c-28.867187 0-57.691406 21.742188-65.625 49.503906l-17.992187 62.964844h504.628906zm0 0"/><path d="m159.601562 238.867188c12.171876 0 23.546876-3.46875 33.199219-9.460938v-86.9375h-66.398437v86.9375c9.652344 5.992188 21.023437 9.460938 33.199218 9.460938zm0 0"/><path d="m415.601562 142.46875v86.9375c9.652344 5.988281 21.023438 9.460938 33.199219 9.460938 34.847657 0 63.199219-28.351563 63.199219-63.199219v-33.199219zm0 0"/><path d="m256 238.867188c12.175781 0 23.546875-3.46875 33.199219-9.460938v-86.9375h-66.398438v86.9375c9.652344 5.992188 21.023438 9.460938 33.199219 9.460938zm0 0"/><path d="m352.398438 238.867188c12.175781 0 23.546874-3.46875 33.199218-9.460938v-86.9375h-66.398437v86.9375c9.652343 5.992188 21.027343 9.460938 33.199219 9.460938zm0 0"/></symbol><symbol id="different-squares" viewBox="0 0 24.334 24.334"><title>different-squares</title><path style="fill:#030104;" d="M10.295,0H0.936C0.419,0,0,0.419,0,0.936v9.359c0,0.517,0.419,0.936,0.936,0.936h9.359 c0.517,0,0.936-0.419,0.936-0.936V0.936C11.231,0.419,10.812,0,10.295,0z"/><path style="fill:#030104;" d="M23.398,0h-9.359c-0.517,0-0.936,0.419-0.936,0.936v9.359c0,0.517,0.419,0.936,0.936,0.936h9.359 c0.517,0,0.936-0.419,0.936-0.936V0.936C24.334,0.419,23.915,0,23.398,0z M22.462,9.359h-7.487V1.872h7.487V9.359z"/><path style="fill:#030104;" d="M10.295,13.103H0.936C0.419,13.103,0,13.522,0,14.039v9.359c0,0.517,0.419,0.936,0.936,0.936h9.359 c0.517,0,0.936-0.419,0.936-0.936v-9.359C11.231,13.521,10.812,13.103,10.295,13.103z M4.42,22.462 c0.161-0.276,0.26-0.593,0.26-0.936c0-1.034-0.838-1.872-1.872-1.872c-0.343,0-0.66,0.099-0.936,0.26v-2.391 c0.276,0.161,0.593,0.26,0.936,0.26c1.034,0,1.872-0.838,1.872-1.872c0-0.343-0.099-0.66-0.26-0.936h2.391 c-0.161,0.276-0.26,0.593-0.26,0.936c0,1.034,0.838,1.872,1.872,1.872c0.343,0,0.66-0.099,0.936-0.26v2.391 c-0.276-0.161-0.593-0.26-0.936-0.26c-1.034,0-1.872,0.838-1.872,1.872c0,0.343,0.099,0.66,0.26,0.936H4.42z"/><path style="fill:#030104;" d="M23.398,13.103h-9.359c-0.517,0-0.936,0.419-0.936,0.936v4.679v4.679 c0,0.517,0.419,0.936,0.936,0.936h4.679h4.679c0.517,0,0.936-0.419,0.936-0.936v-9.359C24.334,13.521,23.915,13.103,23.398,13.103 z M14.975,19.106l4.131-4.131h2.033l-6.164,6.164C14.975,21.139,14.975,19.106,14.975,19.106z M14.975,14.975h1.484l-1.484,1.484 V14.975z M22.462,16.298v2.032l-4.131,4.132h-2.033L22.462,16.298z M22.462,22.462h-1.485l1.485-1.485V22.462z"/><circle style="fill:#030104;" cx="5.616" cy="18.718" r="1.872"/></symbol><symbol id="e-learning" viewBox="0 0 24 24"><title>e-learning</title><path d="m21.5 24h-19c-1.379 0-2.5-1.122-2.5-2.5v-19c0-1.378 1.121-2.5 2.5-2.5h19c1.379 0 2.5 1.122 2.5 2.5v19c0 1.378-1.121 2.5-2.5 2.5zm-19-23c-.827 0-1.5.673-1.5 1.5v19c0 .827.673 1.5 1.5 1.5h19c.827 0 1.5-.673 1.5-1.5v-19c0-.827-.673-1.5-1.5-1.5z"/><path d="m23.5 18h-23c-.276 0-.5-.224-.5-.5s.224-.5.5-.5h23c.276 0 .5.224.5.5s-.224.5-.5.5z"/><path d="m20.5 21h-17c-.276 0-.5-.224-.5-.5s.224-.5.5-.5h17c.276 0 .5.224.5.5s-.224.5-.5.5z"/><path d="m8.5 22c-.276 0-.5-.224-.5-.5v-2c0-.276.224-.5.5-.5s.5.224.5.5v2c0 .276-.224.5-.5.5z"/><path d="m7 13c-.276 0-.5-.224-.5-.5v-6c0-.276.224-.5.5-.5s.5.224.5.5v6c0 .276-.224.5-.5.5z"/><path d="m12 13h-3c-.276 0-.5-.224-.5-.5v-1c0-1.378 1.121-2.5 2.5-2.5.275 0 .5-.224.5-.5v-1c0-.276-.225-.5-.5-.5h-2c-.276 0-.5-.224-.5-.5s.224-.5.5-.5h2c.827 0 1.5.673 1.5 1.5v1c0 .827-.673 1.5-1.5 1.5s-1.5.673-1.5 1.5v.5h2.5c.276 0 .5.224.5.5s-.224.5-.5.5z"/><path d="m16 13h-2c-.276 0-.5-.224-.5-.5s.224-.5.5-.5h2c.275 0 .5-.224.5-.5v-1c0-.276-.225-.5-.5-.5h-2c-.276 0-.5-.224-.5-.5s.224-.5.5-.5h2c.827 0 1.5.673 1.5 1.5v1c0 .827-.673 1.5-1.5 1.5z"/><path d="m16 10h-2c-.276 0-.5-.224-.5-.5s.224-.5.5-.5h2c.275 0 .5-.224.5-.5v-1c0-.276-.225-.5-.5-.5h-2c-.276 0-.5-.224-.5-.5s.224-.5.5-.5h2c.827 0 1.5.673 1.5 1.5v1c0 .827-.673 1.5-1.5 1.5z"/></symbol><symbol id="delete" viewBox="0 0 443 443"><title>delete</title><path d="M321.785,38h-83.384V0H125.169v38H41.785v60h280V38z M155.169,30h53.232v8h-53.232V30z"/><path d="M295.142,214.31l5.66-86.31H62.769l19.016,290h114.172c-14.861-21.067-23.602-46.746-23.602-74.43 C172.355,274.43,226.849,217.779,295.142,214.31z"/><path d="M301.785,244.141c-54.826,0-99.43,44.604-99.43,99.429S246.959,443,301.785,443s99.43-44.604,99.43-99.43 S356.611,244.141,301.785,244.141z M355.961,376.533l-21.213,21.213l-32.963-32.963l-32.963,32.963l-21.213-21.213l32.963-32.963 l-32.963-32.963l21.213-21.213l32.963,32.963l32.963-32.963l21.213,21.213l-32.963,32.963L355.961,376.533z"/></symbol><symbol id="menu" viewBox="0 0 515.555 515.555"><title>menu</title><path d="m496.679 212.208c25.167 25.167 25.167 65.971 0 91.138s-65.971 25.167-91.138 0-25.167-65.971 0-91.138 65.971-25.167 91.138 0"/><path d="m303.347 212.208c25.167 25.167 25.167 65.971 0 91.138s-65.971 25.167-91.138 0-25.167-65.971 0-91.138 65.971-25.167 91.138 0"/><path d="m110.014 212.208c25.167 25.167 25.167 65.971 0 91.138s-65.971 25.167-91.138 0-25.167-65.971 0-91.138 65.971-25.167 91.138 0"/></symbol><symbol id="search" viewBox="0 0 56.966 56.966"><title>search</title><path d="M55.146,51.887L41.588,37.786c3.486-4.144,5.396-9.358,5.396-14.786c0-12.682-10.318-23-23-23s-23,10.318-23,23 s10.318,23,23,23c4.761,0,9.298-1.436,13.177-4.162l13.661,14.208c0.571,0.593,1.339,0.92,2.162,0.92 c0.779,0,1.518-0.297,2.079-0.837C56.255,54.982,56.293,53.08,55.146,51.887z M23.984,6c9.374,0,17,7.626,17,17s-7.626,17-17,17 s-17-7.626-17-17S14.61,6,23.984,6z"/></symbol><symbol id="edit" viewBox="0 0 512 511"><title>edit</title><path d="m405.332031 256.484375c-11.796875 0-21.332031 9.558594-21.332031 21.332031v170.667969c0 11.753906-9.558594 21.332031-21.332031 21.332031h-298.667969c-11.777344 0-21.332031-9.578125-21.332031-21.332031v-298.667969c0-11.753906 9.554687-21.332031 21.332031-21.332031h170.667969c11.796875 0 21.332031-9.558594 21.332031-21.332031 0-11.777344-9.535156-21.335938-21.332031-21.335938h-170.667969c-35.285156 0-64 28.714844-64 64v298.667969c0 35.285156 28.714844 64 64 64h298.667969c35.285156 0 64-28.714844 64-64v-170.667969c0-11.796875-9.539063-21.332031-21.335938-21.332031zm0 0"/><path d="m200.019531 237.050781c-1.492187 1.492188-2.496093 3.390625-2.921875 5.4375l-15.082031 75.4375c-.703125 3.496094.40625 7.101563 2.921875 9.640625 2.027344 2.027344 4.757812 3.113282 7.554688 3.113282.679687 0 1.386718-.0625 2.089843-.210938l75.414063-15.082031c2.089844-.429688 3.988281-1.429688 5.460937-2.925781l168.789063-168.789063-75.414063-75.410156zm0 0"/><path d="m496.382812 16.101562c-20.796874-20.800781-54.632812-20.800781-75.414062 0l-29.523438 29.523438 75.414063 75.414062 29.523437-29.527343c10.070313-10.046875 15.617188-23.445313 15.617188-37.695313s-5.546875-27.648437-15.617188-37.714844zm0 0"/></symbol><symbol id="close" viewBox="0 0 365.696 365.696"><title>close</title><path d="m243.1875 182.859375 113.132812-113.132813c12.5-12.5 12.5-32.765624 0-45.246093l-15.082031-15.082031c-12.503906-12.503907-32.769531-12.503907-45.25 0l-113.128906 113.128906-113.132813-113.152344c-12.5-12.5-32.765624-12.5-45.246093 0l-15.105469 15.082031c-12.5 12.503907-12.5 32.769531 0 45.25l113.152344 113.152344-113.128906 113.128906c-12.503907 12.503907-12.503907 32.769531 0 45.25l15.082031 15.082031c12.5 12.5 32.765625 12.5 45.246093 0l113.132813-113.132812 113.128906 113.132812c12.503907 12.5 32.769531 12.5 45.25 0l15.082031-15.082031c12.5-12.503906 12.5-32.769531 0-45.25zm0 0"/></symbol><symbol id="sign-out" viewBox="0 0 477.867 477.867"><title>sign-out</title><g> <g> <path d="M426.657,0H204.79c-28.277,0-51.2,22.923-51.2,51.2v102.4c0,9.426,7.641,17.067,17.067,17.067s17.067-7.641,17.067-17.067 V51.2c0-9.426,7.641-17.067,17.067-17.067h221.867c9.426,0,17.067,7.641,17.067,17.067v375.467 c0,9.426-7.641,17.067-17.067,17.067H204.79c-9.426,0-17.067-7.641-17.067-17.067v-102.4c0-9.426-7.641-17.067-17.067-17.067 s-17.067,7.641-17.067,17.067v102.4c0,28.277,22.923,51.2,51.2,51.2h221.867c28.277,0,51.2-22.923,51.2-51.2V51.2 C477.857,22.923,454.934,0,426.657,0z"/> </g> </g><g> <g> <path d="M341.323,221.867H58.256l56.201-56.201c6.548-6.78,6.36-17.584-0.42-24.132c-6.614-6.387-17.099-6.387-23.712,0 L4.991,226.867c-1.585,1.586-2.838,3.471-3.686,5.547c-1.726,4.175-1.726,8.864,0,13.039c0.852,2.083,2.111,3.974,3.703,5.564 l85.333,85.333c6.548,6.78,17.352,6.968,24.132,0.42c6.78-6.548,6.968-17.352,0.42-24.132c-0.137-0.142-0.277-0.282-0.42-0.42 L58.256,256h283.068c9.426,0,17.067-7.641,17.067-17.067S350.749,221.867,341.323,221.867z"/> </g> </g></symbol><symbol id="upload" viewBox="0 0 512 512"><title>upload</title><path d="m182.461 155.48 49.539-49.539v262.059a24 24 0 0 0 48 0v-262.059l49.539 49.539a24 24 0 1 0 33.941-33.941l-90.509-90.51a24 24 0 0 0 -33.942 0l-90.509 90.51a24 24 0 1 0 33.941 33.941z"/><path d="m464 232a24 24 0 0 0 -24 24v184h-368v-184a24 24 0 0 0 -48 0v192a40 40 0 0 0 40 40h384a40 40 0 0 0 40-40v-192a24 24 0 0 0 -24-24z"/></symbol><symbol id="facebook" viewBox="0 0 24 24"><title>facebook</title><path d="m15.997 3.985h2.191v-3.816c-.378-.052-1.678-.169-3.192-.169-3.159 0-5.323 1.987-5.323 5.639v3.361h-3.486v4.266h3.486v10.734h4.274v-10.733h3.345l.531-4.266h-3.877v-2.939c.001-1.233.333-2.077 2.051-2.077z"/></symbol><symbol id="instagram" viewBox="0 0 512.00096 512.00096"><title>instagram</title><path d="m373.40625 0h-234.8125c-76.421875 0-138.59375 62.171875-138.59375 138.59375v234.816406c0 76.417969 62.171875 138.589844 138.59375 138.589844h234.816406c76.417969 0 138.589844-62.171875 138.589844-138.589844v-234.816406c0-76.421875-62.171875-138.59375-138.59375-138.59375zm-117.40625 395.996094c-77.195312 0-139.996094-62.800782-139.996094-139.996094s62.800782-139.996094 139.996094-139.996094 139.996094 62.800782 139.996094 139.996094-62.800782 139.996094-139.996094 139.996094zm143.34375-246.976563c-22.8125 0-41.367188-18.554687-41.367188-41.367187s18.554688-41.371094 41.367188-41.371094 41.371094 18.558594 41.371094 41.371094-18.558594 41.367187-41.371094 41.367187zm0 0"/><path d="m256 146.019531c-60.640625 0-109.980469 49.335938-109.980469 109.980469 0 60.640625 49.339844 109.980469 109.980469 109.980469 60.644531 0 109.980469-49.339844 109.980469-109.980469 0-60.644531-49.335938-109.980469-109.980469-109.980469zm0 0"/><path d="m399.34375 96.300781c-6.257812 0-11.351562 5.09375-11.351562 11.351563 0 6.257812 5.09375 11.351562 11.351562 11.351562 6.261719 0 11.355469-5.089844 11.355469-11.351562 0-6.261719-5.09375-11.351563-11.355469-11.351563zm0 0"/></symbol><symbol id="twitter" viewBox="0 0 512 512"><title>twitter</title><path d="M512,97.248c-19.04,8.352-39.328,13.888-60.48,16.576c21.76-12.992,38.368-33.408,46.176-58.016 c-20.288,12.096-42.688,20.64-66.56,25.408C411.872,60.704,384.416,48,354.464,48c-58.112,0-104.896,47.168-104.896,104.992 c0,8.32,0.704,16.32,2.432,23.936c-87.264-4.256-164.48-46.08-216.352-109.792c-9.056,15.712-14.368,33.696-14.368,53.056 c0,36.352,18.72,68.576,46.624,87.232c-16.864-0.32-33.408-5.216-47.424-12.928c0,0.32,0,0.736,0,1.152 c0,51.008,36.384,93.376,84.096,103.136c-8.544,2.336-17.856,3.456-27.52,3.456c-6.72,0-13.504-0.384-19.872-1.792 c13.6,41.568,52.192,72.128,98.08,73.12c-35.712,27.936-81.056,44.768-130.144,44.768c-8.608,0-16.864-0.384-25.12-1.44 C46.496,446.88,101.6,464,161.024,464c193.152,0,298.752-160,298.752-298.688c0-4.64-0.16-9.12-0.384-13.568 C480.224,136.96,497.728,118.496,512,97.248z"/></symbol><symbol id="store-1" viewBox="0 0 480.111 480.111"><title>store-1</title><path d="m456.034 271.056v169c0 22.056-17.944 40-40 40h-352c-22.056 0-40-17.944-40-40v-169c0-4.418 3.582-8 8-8s8 3.582 8 8v169c0 13.234 10.766 24 24 24h87v-135c0-22.056 17.944-40 40-40h98c22.056 0 40 17.944 40 40v103c0 4.418-3.582 8-8 8s-8-3.582-8-8v-103c0-13.233-10.767-24-24-24h-98c-13.233 0-24 10.767-24 24v135h65v-126c0-4.418 3.582-8 8-8s8 3.582 8 8v126h168c13.233 0 24-10.766 24-24v-169c0-4.418 3.582-8 8-8s8 3.581 8 8zm-404-143c0 4.418 3.582 8 8 8 435.268 0 413.687.778 416.867-1.661 1.662-1.279 2.749-3.124 3.047-5.232.446-3.215 3.317 4.691-52.574-124.288-1.269-2.926-4.152-4.819-7.341-4.819h-360c-3.188 0-6.073 1.894-7.34 4.819l-52 120c-.919 2.122-.66-1.246-.66 52.813.058 36.385 29.665 65.987 66 65.987 24.979 0 46.778-13.99 57.983-34.556 25.026 45.99 90.945 46.041 116.017.031 25.052 45.973 90.942 45.983 116 0 11.197 20.548 32.998 34.525 58 34.525 36.393 0 66-29.607 66-66 0-4.418-3.582-8-8-8s-8 3.582-8 8c0 27.57-22.43 50-50 50s-50-22.43-50-50c0-4.418-3.582-8-8-8s-8 3.582-8 8c0 27.57-22.43 50-50 50s-50-22.43-50-50c0-4.418-3.582-8-8-8s-8 3.582-8 8c0 27.57-22.43 50-50 50-26.957 0-50-21.664-50-50.4 0-4.418-3.582-8-8-8s-8 3.582-8 8c0 28.493-22.899 50.4-50 50.4-27.526 0-49.957-22.436-50-50v-47.961l49.253-113.658h349.496l45.066 104h-399.814c-4.419 0-8 3.581-8 8z"/></symbol><symbol id="arrow-down-sign-to-navigate" viewBox="0 0 451.847 451.847"><title>arrow-down-sign-to-navigate</title><path d="M225.923,354.706c-8.098,0-16.195-3.092-22.369-9.263L9.27,151.157c-12.359-12.359-12.359-32.397,0-44.751 c12.354-12.354,32.388-12.354,44.748,0l171.905,171.915l171.906-171.909c12.359-12.354,32.391-12.354,44.744,0 c12.365,12.354,12.365,32.392,0,44.751L248.292,345.449C242.115,351.621,234.018,354.706,225.923,354.706z"/></symbol></svg>
